<?xml version="1.0" encoding="UTF-8"?>
<svg width="357px" height="117px" viewBox="0 0 357 117" version="1.1" xmlns="http://www.w3.org/2000/svg" xmlns:xlink="http://www.w3.org/1999/xlink">
    <title>logos/other/boost</title>
    <g id="Web" stroke="none" stroke-width="1" fill="none" fill-rule="evenodd">
        <g id="Harris-Teeter-Web-Desktop-Accounts-Dashboard-Boost-" transform="translate(-343.000000, -247.000000)" fill="#FFFFFF" fill-rule="nonzero">
            <g id="Boost-Header---Web" transform="translate(303.000000, 182.000000)">
                <g id="-boost_white" transform="translate(40.350000, 65.500000)">
                    <path d="M327.672127,94.3418466 C328.714212,94.0607718 329.826102,94.3606751 330.588961,95.128586 L330.588961,95.128586 L338.311394,102.891663 C338.879139,103.460954 339.19828,104.234409 339.19828,105.041075 C339.19828,105.847741 338.879139,106.621195 338.311394,107.190486 L338.311394,107.190486 L330.594176,114.958812 C329.831317,115.726723 328.719426,116.026627 327.677341,115.745552 C326.635257,115.464477 325.821296,114.645126 325.54207,113.59614 C325.262845,112.547154 325.560775,111.4279 326.323634,110.659989 L326.323634,110.659989 L331.908188,105.03845 L326.318419,99.4274095 C325.555561,98.6594986 325.25763,97.5402442 325.536856,96.4912584 C325.816082,95.4422727 326.630042,94.6229215 327.672127,94.3418466 Z M344.733437,94.3418465 C345.775521,94.0607716 346.887412,94.360675 347.650271,95.128586 L347.650271,95.128586 L355.36749,102.902161 L355.36749,102.891663 C355.935234,103.460954 356.254376,104.234409 356.254376,105.041075 C356.254376,105.847741 355.935234,106.621195 355.36749,107.190486 L355.36749,107.190486 L347.650271,114.958812 C346.470994,116.145899 344.559007,116.145899 343.37973,114.958812 C342.200452,113.771725 342.200452,111.847076 343.379729,110.659989 L343.379729,110.659989 L348.964284,105.03845 L343.379729,99.4274095 C342.61687,98.6594986 342.31894,97.5402441 342.598166,96.4912583 C342.877391,95.4422725 343.691352,94.6229213 344.733437,94.3418465 Z M245.767345,46.5608032 C252.816633,46.6404723 259.751934,48.3615271 266.030258,51.5892194 C269.283537,53.1149387 271.347926,56.4168385 271.307167,60.0294004 C271.317355,62.440985 270.361919,64.7550036 268.656629,66.4488707 C266.951338,68.1427378 264.64002,69.0735906 262.24465,69.0312104 C260.799568,69.0451473 259.375352,68.6835717 258.10968,67.9814366 C253.067417,65.5039706 248.671731,64.1865045 245.417985,64.1865045 C243.186249,64.1865045 240.803297,64.8216176 240.803297,66.5957353 L240.803297,66.5957353 L240.803297,66.8319344 C240.803297,68.3933053 244.628444,69.8947622 248.547303,71.2561645 L249.12103,71.454385 L249.12103,71.454385 L249.693497,71.6505502 C249.88382,71.7155898 250.0735,71.7802775 250.262104,71.8446041 C250.908681,72.0650565 251.570902,72.2907579 252.238337,72.526957 C259.298549,74.8941968 272.475178,79.3189932 272.490821,93.0920249 L272.490821,93.0920249 L272.490821,93.328224 C272.490821,107.290215 262.813012,115.625419 246.601639,115.625419 C237.842933,115.574638 229.285384,112.977248 221.958684,108.145781 C219.294132,106.479854 217.674825,103.545402 217.677365,100.387952 C217.656656,97.9950007 218.591336,95.6938183 220.271853,94.0011861 C221.952369,92.3085539 224.237866,91.3663412 226.615087,91.3861425 C228.209483,91.375231 229.776463,91.8036043 231.146345,92.6248755 C236.61097,96.0733823 242.263311,97.9734728 247.07093,97.9734728 C249.599883,97.9734728 252.618984,97.4958258 252.618984,95.2125679 L252.618984,95.2125679 L252.618984,94.9763688 C252.618984,93.0785604 248.52089,91.781048 244.01645,90.4361383 L243.400037,90.2523869 L241.01187,89.5385407 C234.499164,87.6332013 220.675957,83.607319 220.675957,68.7372737 L220.675957,68.7372737 L220.675957,68.5010746 C220.675957,55.3789027 230.9117,46.5608032 245.767345,46.5608032 Z M292.910164,30.5045136 C295.840557,30.3978137 298.688481,31.4929532 300.801846,33.5391778 C302.915211,35.5854024 304.113012,38.4074566 304.120988,41.3591742 L304.120988,41.3591742 L304.120988,47.3008936 L304.272204,47.3008936 C309.543675,47.282051 313.832222,51.5684484 313.85094,56.8748303 C313.869659,62.1812122 309.611462,66.4981596 304.33999,66.5170022 L304.33999,66.5170022 L304.120988,66.5170022 L304.120988,90.6617986 C304.120988,93.805871 305.189927,94.6666855 307.187018,94.808405 L307.187018,94.808405 L311.671348,94.808405 C312.655735,94.8085298 313.599542,95.2032854 314.294159,95.9054185 L314.294159,95.9054185 L323.382748,105.03845 L314.257659,114.250215 C313.566227,114.947528 312.629222,115.34179 311.65049,115.347228 L311.65049,115.347228 L302.640116,115.347228 C289.072412,115.347228 282.48149,108.513201 282.48149,94.4619796 L282.48149,94.4619796 L282.48149,66.4277715 C277.790489,65.7506265 274.307178,61.7055642 274.307178,56.9351923 C274.307178,52.1648204 277.790489,48.119758 282.48149,47.4426131 L282.48149,47.4426131 L282.48149,41.6688574 C282.48149,35.7533823 287.049249,30.7144683 292.910164,30.5045136 Z M109.203866,46.6710294 C128.966202,46.6710294 144.437139,61.6408032 144.442354,80.7519344 L144.442354,80.7519344 L144.442354,80.9828846 C144.442354,100.225238 128.877559,115.299989 108.984864,115.299989 C89.2225276,115.299989 73.7463761,100.324966 73.7463761,81.2138348 L73.7463761,81.2138348 L73.7463761,80.9828846 C73.7463761,61.7405317 89.3163857,46.6710294 109.203866,46.6710294 Z M19.7362761,14.4114819 C20.0453578,14.1060721 20.5058629,14.016213 20.9059243,14.1832464 C21.3059856,14.3502799 21.5681187,14.7418546 21.5717227,15.1778167 L21.5717227,15.1778167 L21.5717227,49.2954638 C25.9931152,47.5422188 30.7054604,46.651578 35.4575014,46.6710294 C55.2354807,46.6710294 70.7168465,61.6408032 70.7012153,80.7519344 L70.7012153,80.7519344 L70.7012153,80.9828846 C70.7012153,100.225238 55.131194,115.299989 35.2437136,115.299989 C15.4813773,115.299989 5.74154704e-06,100.314468 5.74154704e-06,81.2138348 L5.74154704e-06,81.2138348 L5.74154704e-06,15.1988122 C-0.00141328114,14.7603829 0.260311371,14.364486 0.66262495,14.1965122 C1.06493853,14.0285384 1.52819407,14.1217419 1.83545806,14.4324774 L1.83545806,14.4324774 L8.66102487,21.3032466 C9.8395606,22.4871868 11.7478166,22.4871868 12.9263523,21.3032466 L12.9263523,21.3032466 Z M182.939802,46.6710294 C202.702138,46.6710294 218.183504,61.6408032 218.183504,80.7519344 L218.183504,80.7519344 L218.183504,80.9828846 C218.183504,100.225238 202.613495,115.299989 182.726014,115.299989 C162.963678,115.299989 147.482312,100.324966 147.482312,81.2138348 L147.482312,81.2138348 L147.482312,80.9828846 C147.482312,61.7405317 163.047107,46.6710294 182.939802,46.6710294 Z M109.13608,67.6192647 C101.387575,67.6192647 95.3180873,73.4875 95.3180873,80.9828846 L95.3180873,80.9828846 L95.3180873,81.0721154 C95.3180873,88.5150113 101.304146,94.3465045 109.047436,94.3465045 C116.790726,94.3465045 122.860214,88.4782692 122.860214,80.9828846 L122.860214,80.9828846 L122.860214,80.8936538 C122.860214,73.4507579 116.884584,67.6192647 109.13608,67.6192647 Z M35.4001437,67.6245136 C27.6568536,67.6245136 21.5873657,73.4927489 21.5873657,80.9828846 L21.5873657,80.9828846 L21.5873657,81.0721154 C21.5873657,88.5150113 27.5473526,94.3465045 35.295857,94.3465045 C43.0443614,94.3465045 49.1138493,88.4782692 49.1138493,80.9828846 L49.1138493,80.9828846 L49.1294924,80.8936538 C49.1294924,73.4507579 43.1434338,67.6245136 35.4001437,67.6245136 Z M182.866801,67.6192647 C175.123511,67.6192647 169.054023,73.4875 169.054023,80.9828846 L169.054023,80.9828846 L169.054023,81.0721154 C169.054023,88.5150113 175.029653,94.3465045 182.778158,94.3465045 C190.526662,94.3465045 196.59615,88.4782692 196.59615,80.9828846 L196.59615,80.9828846 L196.580507,80.8936538 C196.580507,73.4507579 190.610091,67.6192647 182.866801,67.6192647 Z M16.3782433,0.953382336 C17.1325415,0.148752052 18.2616286,-0.179701393 19.3260366,0.0958639648 C20.3904447,0.371429323 21.2220071,1.20747669 21.4970598,2.27859635 C21.7721124,3.34971602 21.4471996,4.48668091 20.648785,5.246957 L20.648785,5.246957 L12.9263523,13.0205317 C12.3616985,13.5917197 11.5941953,13.9128458 10.7936886,13.9128458 C9.99318189,13.9128458 9.22567867,13.5917197 8.66102487,13.0205317 L8.66102487,13.0205317 L0.938592144,5.246957 C-0.23924551,4.05842022 -0.236910972,2.13377137 0.943806481,0.948133467 C2.12452393,-0.237504436 4.03651062,-0.235154438 5.21434828,0.953382336 L5.21434828,0.953382336 L10.7936886,6.5749208 Z" id="shapes"></path>
                </g>
            </g>
        </g>
    </g>
</svg>