<svg xmlns="http://www.w3.org/2000/svg" fill="none" viewBox="0 0 48 48"><g clip-path="url(#accent-icon-receipt-a)"><path fill="#8B8F94" d="M24 48c13.255 0 24-10.745 24-24S37.255 0 24 0 0 10.745 0 24s10.745 24 24 24Z" opacity="0.2"/><path fill="#fff" fill-rule="evenodd" d="M33 8a1 1 0 1 0-2 0 1 1 0 1 1-2 0 1 1 0 1 0-2 0 1 1 0 1 1-2 0 1 1 0 1 0-2 0 1 1 0 1 1-2 0 1 1 0 1 0-2 0 1 1 0 1 1-2 0 1 1 0 1 0-2 0 1 1 0 1 1-2 0 1 1 0 1 0-2 0v32a1 1 0 0 0 1 1h.056a.944.944 0 0 0 .944-.944c0-.522.423-.945.944-.945h.112c.521 0 .944.423.944.945 0 .521.423.944.944.944h.112a.944.944 0 0 0 .944-.944c0-.522.423-.945.944-.945h.112c.521 0 .944.423.944.945 0 .521.423.944.944.944h.112a.944.944 0 0 0 .944-.944c0-.522.423-.945.944-.945h.112c.521 0 .944.423.944.945 0 .521.423.944.944.944h.112a.944.944 0 0 0 .944-.944c0-.522.423-.945.944-.945h.112c.521 0 .944.423.944.945 0 .521.423.944.944.944h.112a.944.944 0 0 0 .944-.944c0-.522.423-.945.944-.945h.112c.521 0 .944.423.944.945 0 .521.423.944.944.944h.112a.944.944 0 0 0 .944-.944c0-.522.423-.945.944-.945h.112c.521 0 .944.423.944.945 0 .521.423.944.944.944H36a1 1 0 0 0 1-1V8a1 1 0 1 0-2 0 1 1 0 1 1-2 0Z" clip-rule="evenodd"/><rect width="22" height="2" x="13" y="29" fill="#D1D5D8" rx="1"/><rect width="5" height="2" x="28" y="33" fill="#2874C1" rx="1"/><rect width="9" height="2" x="25" y="20" fill="#AEDAF8" rx="1"/><rect width="7" height="2" x="27" y="24" fill="#AEDAF8" rx="1"/><rect width="6" height="2" x="28" y="16" fill="#AEDAF8" rx="1"/><rect width="8" height="2" x="26" y="12" fill="#AEDAF8" rx="1"/><ellipse cx="18.5" cy="15" fill="#EFF7FD" rx="4.5" ry="3"/></g><defs><clipPath id="accent-icon-receipt-a"><path fill="#fff" d="M0 0h48v48H0z"/></clipPath></defs></svg>